:SAMPLES-PER-SECOND 24
:FULLY-SPECIFIED
:DEGREES
518
root  -9.33019 38.4602 -18.4879 174.902 70.554 166.786
RightUpLeg  -22.8219 14.4091 2.79381
RightLeg  33.5572 -9.30467 -6.95197
RightFoot  -15.5894 -0.484311 -9.77673
RightToes  -2.09809e-008 3.77894e-005 6.81332e-007
Spine  6.59958 0.540554 3.80323
Spine1  1.59291 1.36329 -3.44803
HEad  -19.5287 41.9289 -17.3851
LeftShoulder1  6.34801 -12.0995 -34.6644
LeftArm  6.13903 20.8134 -34.6736
LeftForeArm  170.285 -65.2268 -158.791
LeftHand  -0.142599 -2.9509 2.21274
RightShoulder  3.24677 5.84075 28.8088
RightArm  12.1661 -28.4059 26.5356
RightForeArm  155.516 72.7329 146.818
RightHand  -0.497743 8.90819 -4.41862
LeftUpLeg  -27.0002 -1.93329 10.8434
LeftLeg  42.9679 11.7725 11.8725
LeftFoot  2.2754 0.920719 -7.36489
LeftToes  1.24773e-006 1.46318e-008 1.32523e-009
519
root  -9.44363 37.1813 -19.343 172.062 70.975 164.071
RightUpLeg  -28.3066 17.2938 0.860556
RightLeg  46.1595 -10.0452 -11.3168
RightFoot  -20.573 -0.767091 -7.76538
RightToes  -2.09809e-008 3.77894e-005 6.81332e-007
Spine  7.84983 -0.499921 4.33281
Spine1  2.1787 0.586933 -4.42808
HEad  -26.4747 42.1903 -20.6343
LeftShoulder1  6.81161 -12.5997 -36.2519
LeftArm  4.71496 17.9436 -33.6859
LeftForeArm  168.053 -67.6416 -156.072
LeftHand  -0.228316 -2.72788 3.4864
RightShoulder  3.30721 5.94446 29.0736
RightArm  9.5448 -24.425 28.0899
RightForeArm  142.258 77.1648 132.041
RightHand  -0.47418 8.96575 -4.21378
LeftUpLeg  -25.6812 -5.25018 13.6062
LeftLeg  41.0404 6.29985 6.2308
LeftFoot  -3.87419 1.28056 -19.1162
LeftToes  1.24773e-006 1.46318e-008 1.32523e-009
520
root  -9.41225 36.2481 -20.2726 167.373 70.4629 159.198
RightUpLeg  -31.3957 15.3436 -2.06124
RightLeg  53.8215 -7.74618 -11.6024
RightFoot  -24.9018 -0.741463 -4.77261
RightToes  -2.09809e-008 3.77894e-005 6.81332e-007
Spine  8.21743 -1.55331 3.04024
Spine1  2.16471 -0.98159 -2.23046
HEad  -31.3746 42.903 -23.7103
LeftShoulder1  7.2428 -13.0684 -37.6123
LeftArm  3.87267 17.8021 -33.7419
LeftForeArm  165.913 -70.0777 -152.754
LeftHand  -0.290834 -2.60027 4.44299
RightShoulder  3.30421 5.97658 28.9188
RightArm  8.52983 -23.1714 27.4658
RightForeArm  135.104 78.3951 124.596
RightHand  -0.441432 8.93041 -3.9585
LeftUpLeg  -22.6131 -5.21767 11.8772
LeftLeg  38.4852 2.74481 2.72262
LeftFoot  -15.8766 -0.86794 -25.4001
LeftToes  1.24773e-006 1.46318e-008 1.32523e-009
521
root  -9.33129 35.9399 -20.9856 162.988 70.4735 154.124
RightUpLeg  -32.6886 15.0816 -4.88468
RightLeg  56.5689 -6.93129 -11.5858
RightFoot  -26.7445 -0.701994 -3.84122
RightToes  -2.09809e-008 3.77894e-005 6.81332e-007
Spine  8.28579 -1.55524 3.00275
Spine1  1.51746 -1.31781 -0.68352
HEad  -34.3686 42.9002 -27.9173
LeftShoulder1  7.42973 -13.2542 -38.2221
LeftArm  4.32873 19.2552 -33.9273
LeftForeArm  166.408 -70.2895 -152.512
LeftHand  -0.237873 -2.90001 3.56288
RightShoulder  3.23462 5.81367 28.7795
RightArm  8.24742 -23.6927 24.4989
RightForeArm  143.225 77.0647 132.647
RightHand  -0.485883 9.02577 -4.29127
LeftUpLeg  -23.5556 0.735516 8.74698
LeftLeg  41.869 -0.720412 -0.327979
LeftFoot  -19.2218 -1.46459 -22.0824
LeftToes  1.24773e-006 1.46318e-008 1.32523e-009
522
root  -9.38922 35.9616 -21.4989 159.102 71.2329 150.209
RightUpLeg  -32.5908 16.7877 -6.87466
RightLeg  56.7109 -7.12301 -11.9402
RightFoot  -27.0791 -0.588507 -2.92754
RightToes  -2.09809e-008 3.77894e-005 6.81332e-007
Spine  9.28461 -1.3114 6.84802
Spine1  0.575753 -0.376573 -3.26939
HEad  -34.938 42.7932 -30.1739
LeftShoulder1  7.0784 -12.918 -37.0306
LeftArm  5.68329 21.3081 -33.667
LeftForeArm  168.927 -68.3503 -155.352
LeftHand  -0.141789 -3.19963 2.15565
RightShoulder  3.24071 5.8281 28.7907
RightArm  7.97072 -21.3297 22.1851
RightForeArm  140.272 77.3874 130.715
RightHand  -0.54655 8.88479 -4.82066
LeftUpLeg  -30.9116 7.97537 7.90021
LeftLeg  53.8575 -5.38934 -7.61445
LeftFoot  -6.44756 1.01888 -22.2582
LeftToes  1.24773e-006 1.46318e-008 1.32523e-009
523
root  -9.46553 36.0857 -22.036 150.911 71.7615 143.223
RightUpLeg  -30.8192 16.8829 -9.34729
RightLeg  56.198 -6.38691 -10.5853
RightFoot  -27.7103 -0.513208 -2.26107
RightToes  -2.09809e-008 3.77894e-005 6.81332e-007
Spine  11.2291 -1.00877 10.0042
Spine1  -0.684649 0.701084 -6.11211
HEad  -31.7742 43.4666 -28.0208
LeftShoulder1  6.69799 -12.5395 -35.715
LeftArm  7.11235 23.6306 -32.7699
LeftForeArm  170.959 -65.8858 -158.235
LeftHand  -0.140628 -3.32903 2.11752
RightShoulder  3.26534 5.998 28.4177
RightArm  8.72377 -14.8108 20.7625
RightForeArm  123.42 79.3645 114.681
RightHand  -0.547145 8.41402 -4.96902
LeftUpLeg  -39.1301 14.0304 7.94402
LeftLeg  67.0658 -4.33572 -10.4547
LeftFoot  4.58461 3.70468 -26.2657
LeftToes  1.24773e-006 1.46318e-008 1.32523e-009
